# xmcd
#
# Track frame offsets:
#	150
#	16527
#	36385
#	51722
#	67615
#	82827
#	99755
#	115047
#	130735
#	146070
#	162240
#	176755
#	189770
#	204970
#	222592
#
# Disc length: 3175 seconds
#
# Revision: 2
# Processed by: cddbd v1.5.1PL2 Copyright (c) Steve Scherf et al.
# Submitted via: audiograbber 1.83.01
#
DISCID=c10c650f
DTITLE=Music Maestro - MM6109
DYEAR=1900
DGENRE=Karaoke
TTITLE0=Herndon, Ty - I Want My Goodbye Back
TTITLE1=Twain, Shania - Woman In Me Needs The Man In You, The
TTITLE2=Berry, John - I Think About It All The Time
TTITLE3=Darling, Helen - Jenny Come Back
TTITLE4=Lawrence, Tracy - If The World Had A Front Porch
TTITLE5=Sawyer Brown - This Thing Called Wantin' And Havin' It All
TTITLE6=McBride, Martina - Safe In The Arms Of Love
TTITLE7=Western Flyer - Friday Night Stampede
TTITLE8=Chesney, Kenny - All I Need To Know
TTITLE9=Stone, Doug - Sometimes I Forget
TTITLE10=Singletary, Daryle - I Let Her Lie
TTITLE11=Parnell, Leroy - Little Bit Of You, A
TTITLE12=Shenandoah - Heaven Bound (I'm Ready)
TTITLE13=Montana, Billy - Rain Through The Roof
TTITLE14=Hill, Faith - Let's Go To Vegas
EXTD=Listed as in KJPro
EXTT0=
EXTT1=
EXTT2=
EXTT3=
EXTT4=
EXTT5=
EXTT6=
EXTT7=
EXTT8=
EXTT9=
EXTT10=
EXTT11=
EXTT12=
EXTT13=
EXTT14=
PLAYORDER=
